<svg id="Capa_1" data-name="Capa 1" xmlns="http://www.w3.org/2000/svg" viewBox="0 0 1200 1200"><defs><style>.cls-1{font-size:123.55px;font-family:BigJohn, Big John;}.cls-2{letter-spacing:-0.03em;}.cls-3{letter-spacing:-0.02em;}.cls-4{fill:#b6373e;}.cls-5{font-size:120.35px;font-family:CenturyGothic, Century Gothic;letter-spacing:0.12em;}.cls-6{fill:#cd7164;}.cls-7{fill:#db4e57;}.cls-8{fill:#00777d;}.cls-9{fill:#86a9ad;}</style></defs><text class="cls-1" transform="translate(295.29 937.73)"><tspan class="cls-2">f</tspan><tspan class="cls-3" x="71.78" y="0">a</tspan><tspan x="172.72" y="0">shion</tspan></text><path class="cls-4" d="M326.29,404.75a17.48,17.48,0,0,0,2.78.84H328Z"/><text class="cls-5" transform="translate(287.79 1044.1)">&amp; simple</text><path class="cls-6" d="M434.14,357.08s49.67-72.47,178-72.47h162s147.42-4.5,147.42-158.67H612.1S434.29,112.43,434.14,357.08Z"/><path class="cls-7" d="M612.1,318.37v158s157.27-3.42,159.83-158Z"/><path class="cls-8" d="M582.84,811.27v-158s-157.27,3.43-159.83,158Z"/><path class="cls-4" d="M426.33,474.72A156.51,156.51,0,0,0,582.84,631.23v-313A156.51,156.51,0,0,0,426.33,474.72Z"/><path class="cls-9" d="M768.61,654.72A156.51,156.51,0,0,0,612.1,498.21v313A156.51,156.51,0,0,0,768.61,654.72Z"/></svg>